<svg width="300" height="180" viewBox="0 0 300 180" fill="none" xmlns="http://www.w3.org/2000/svg">
  <g filter="url(#filter0_d)">
    <rect x="181.442" y="7.55676" width="69.0578" height="27.3019" fill="#EEEEEE"/>
  </g>
  <path d="M190.008 29.3796H195.362C196.544 29.3796 197.543 29.1282 198.358 28.6254C199.18 28.1575 199.822 27.5639 200.283 26.8446C200.456 26.5722 200.604 26.3103 200.727 26.0589C200.842 25.8005 200.929 25.5072 200.987 25.179C201.109 24.5295 201.17 23.3842 201.17 21.743C201.17 20.1996 201.131 19.1137 201.051 18.4852C200.95 17.8566 200.709 17.256 200.327 16.6834C199.259 14.9794 197.659 14.1204 195.524 14.1064H190.008V29.3796ZM192.398 16.2958H195.254C196.465 16.2679 197.403 16.6973 198.066 17.5843C198.39 17.9404 198.596 18.4048 198.683 18.9775C198.747 19.5502 198.78 20.4999 198.78 21.8268C198.78 23.1886 198.747 24.1175 198.683 24.6133C198.61 25.1161 198.441 25.5316 198.174 25.8599C197.568 26.7468 196.595 27.1903 195.254 27.1903H192.398V16.2958Z" fill="#111111"/>
  <path d="M203.518 29.3796H213.588V27.1903H205.909V22.7068H212.464V20.6536H205.909V16.2958H213.588V14.1064H203.518V29.3796Z" fill="#111111"/>
  <path d="M215.406 29.3796H217.797V19.8574H217.84L221.139 27.1903H223.129L226.428 19.8574H226.482V29.3796H228.873V14.1064H226.612L222.177 24.0581L217.656 14.1064H215.406V29.3796Z" fill="#111111"/>
  <path d="M231.21 21.743C231.21 23.4889 231.264 24.6692 231.372 25.2837C231.43 25.612 231.502 25.8843 231.588 26.1008C231.682 26.3103 231.787 26.5303 231.902 26.7608C232.284 27.4661 232.897 28.0877 233.741 28.6254C234.57 29.1841 235.605 29.4774 236.845 29.5053C238.1 29.4774 239.146 29.1841 239.982 28.6254C240.811 28.0877 241.41 27.4661 241.778 26.7608C242.045 26.3906 242.228 25.8983 242.329 25.2837C242.423 24.6692 242.47 23.4889 242.47 21.743C242.47 19.9692 242.423 18.782 242.329 18.1814C242.228 17.5808 242.045 17.0954 241.778 16.7253C241.41 16.0199 240.811 15.3914 239.982 14.8397C239.146 14.281 238.1 13.9947 236.845 13.9807C235.605 13.9947 234.57 14.281 233.741 14.8397C232.897 15.3914 232.284 16.0199 231.902 16.7253C231.664 17.0954 231.487 17.5808 231.372 18.1814C231.264 18.782 231.21 19.9692 231.21 21.743ZM233.611 21.743C233.611 20.2415 233.669 19.2184 233.784 18.6737C233.885 18.1569 234.091 17.7344 234.401 17.4062C234.653 17.0919 234.985 16.83 235.396 16.6205C235.8 16.418 236.283 16.3098 236.845 16.2958C237.415 16.3098 237.909 16.418 238.327 16.6205C238.724 16.83 239.041 17.0919 239.279 17.4062C239.589 17.7344 239.802 18.1569 239.917 18.6737C240.025 19.2184 240.08 20.2415 240.08 21.743C240.08 23.2445 240.025 24.2606 239.917 24.7914C239.802 25.3221 239.589 25.7516 239.279 26.0799C239.041 26.3941 238.724 26.649 238.327 26.8446C237.909 27.075 237.415 27.1903 236.845 27.1903C236.283 27.1903 235.8 27.075 235.396 26.8446C234.985 26.649 234.653 26.3941 234.401 26.0799C234.091 25.7516 233.885 25.3221 233.784 24.7914C233.669 24.2606 233.611 23.2445 233.611 21.743Z" fill="#111111"/>
  <g clip-path="url(#clip0)">
    <path fill-rule="evenodd" clip-rule="evenodd" d="M30.6817 21.007C30.6817 29.3225 23.9255 36.0632 15.5908 36.0632C7.25649 36.0632 0.500061 29.3225 0.500061 21.007C0.500061 12.6917 7.25649 5.95081 15.5908 5.95081C23.9255 5.95081 30.6817 12.6917 30.6817 21.007Z" fill="#ECB360"/>
    <path fill-rule="evenodd" clip-rule="evenodd" d="M26.6575 19.5014C26.6575 26.9851 20.8016 33.0519 13.5788 33.0519C6.35565 33.0519 0.500061 26.9851 0.500061 19.5014C0.500061 12.0177 6.35565 5.95081 13.5788 5.95081C20.8016 5.95081 26.6575 12.0177 26.6575 19.5014Z" fill="#D76835"/>
    <path fill-rule="evenodd" clip-rule="evenodd" d="M27.6635 17.9956C27.6635 24.648 22.4836 30.0408 16.0935 30.0408C9.70422 30.0408 4.52429 24.648 4.52429 17.9956C4.52429 11.3436 9.70422 5.95081 16.0935 5.95081C22.4836 5.95081 27.6635 11.3436 27.6635 17.9956Z" fill="#D33A41"/>
    <path fill-rule="evenodd" clip-rule="evenodd" d="M26.6574 18.9996C26.6574 25.0972 21.9278 30.0407 16.0937 30.0407C10.2596 30.0407 5.53027 25.0972 5.53027 18.9996C5.53027 12.9014 10.2596 7.95825 16.0937 7.95825C21.9278 7.95825 26.6574 12.9014 26.6574 18.9996Z" fill="#B6CB46"/>
    <path fill-rule="evenodd" clip-rule="evenodd" d="M25.6514 20.0031C25.6514 25.5467 21.147 30.0408 15.5906 30.0408C10.0347 30.0408 5.53027 25.5467 5.53027 20.0031C5.53027 14.4596 10.0347 9.96582 15.5906 9.96582C21.147 9.96582 25.6514 14.4596 25.6514 20.0031Z" fill="#66AD4A"/>
    <path fill-rule="evenodd" clip-rule="evenodd" d="M21.6272 17.9958C21.6272 22.4306 18.0238 26.0258 13.5787 26.0258C9.13342 26.0258 5.53027 22.4306 5.53027 17.9958C5.53027 13.561 9.13342 9.96582 13.5787 9.96582C18.0238 9.96582 21.6272 13.561 21.6272 17.9958Z" fill="#AED7DC"/>
    <path fill-rule="evenodd" clip-rule="evenodd" d="M22.6333 16.992C22.6333 20.8724 19.4804 24.0183 15.5908 24.0183C11.7012 24.0183 8.54852 20.8724 8.54852 16.992C8.54852 13.1114 11.7012 9.96582 15.5908 9.96582C19.4804 9.96582 22.6333 13.1114 22.6333 16.992Z" fill="#5BB1CF"/>
    <path fill-rule="evenodd" clip-rule="evenodd" d="M22.6332 17.4936C22.6332 21.097 19.9307 24.0182 16.5968 24.0182C13.263 24.0182 10.5605 21.097 10.5605 17.4936C10.5605 13.8907 13.263 10.9695 16.5968 10.9695C19.9307 10.9695 22.6332 13.8907 22.6332 17.4936Z" fill="#25A8C3"/>
    <path fill-rule="evenodd" clip-rule="evenodd" d="M15.5906 24.0182C12.8127 24.0182 10.5605 21.5465 10.5605 18.4975C10.5605 15.4485 12.8127 12.9771 15.5906 12.9771C18.3688 12.9771 20.6211 15.4485 20.6211 18.4975C20.6211 21.5465 18.3688 24.0182 15.5906 24.0182Z" fill="#1B1A18"/>
    <path fill-rule="evenodd" clip-rule="evenodd" d="M18.3356 16.9058C17.8571 17.7045 16.9163 18.1665 16.2337 17.9368C15.5513 17.7075 15.3862 16.8736 15.8644 16.0747C16.3429 15.2757 17.2838 14.814 17.9662 15.0433C18.6487 15.2726 18.8138 16.1064 18.3356 16.9058Z" fill="#FFFFFE"/>
    <path fill-rule="evenodd" clip-rule="evenodd" d="M153.838 26.651C153.598 25.9779 153.477 25.1247 153.477 23.9799C153.477 22.8353 153.598 21.9825 153.838 21.3089C154.511 19.3786 156.292 18.3237 158.624 18.3237C160.355 18.3237 161.726 18.9744 162.639 20.0072C162.712 20.0969 162.736 20.2318 162.616 20.3217L161.101 21.5558C160.98 21.6455 160.86 21.6233 160.764 21.511C160.187 20.9051 159.586 20.5684 158.624 20.5684C157.59 20.5684 156.796 21.0399 156.459 21.9825C156.267 22.5212 156.219 23.1498 156.219 23.9799C156.219 24.8106 156.267 25.4617 156.459 26.0004C156.796 26.9204 157.59 27.3919 158.624 27.3919C159.586 27.3919 160.187 27.0553 160.764 26.4493C160.86 26.337 160.98 26.337 161.101 26.4267L162.616 27.6612C162.736 27.7511 162.712 27.8633 162.639 27.9753C161.726 28.9855 160.355 29.6365 158.624 29.6365C156.292 29.6365 154.511 28.5816 153.838 26.651Z" fill="#111111"/>
    <path fill-rule="evenodd" clip-rule="evenodd" d="M172.029 29.3898C171.861 29.3898 171.74 29.3225 171.644 29.1651L168.71 24.6311L167.147 26.3144V29.1651C167.147 29.3 167.052 29.3898 166.907 29.3898H164.694C164.55 29.3898 164.454 29.3 164.454 29.1651V14.3506C164.454 14.2161 164.55 14.1263 164.694 14.1263H166.907C167.052 14.1263 167.147 14.2161 167.147 14.3506V23.1497L171.116 18.7953C171.26 18.6379 171.38 18.5707 171.572 18.5707H174.025C174.17 18.5707 174.217 18.7051 174.121 18.7953L170.442 22.7455L174.674 29.1651C174.747 29.2549 174.699 29.3898 174.554 29.3898H172.029Z" fill="#111111"/>
    <path fill-rule="evenodd" clip-rule="evenodd" d="M43.089 27.0553H46.5039C48.0912 27.0553 48.9808 26.2022 48.9808 24.9229C48.9808 23.6659 48.0912 22.8131 46.5039 22.8131H43.089C42.993 22.8131 42.9447 22.8579 42.9447 22.9476V26.9205C42.9447 27.0102 42.993 27.0553 43.089 27.0553ZM46.3597 20.4787C47.8026 20.4787 48.6923 19.6706 48.6923 18.4808C48.6923 17.2689 47.8026 16.4608 46.3597 16.4608H43.089C42.993 16.4608 42.9447 16.5055 42.9447 16.5953V20.3439C42.9447 20.4336 42.993 20.4787 43.089 20.4787H46.3597ZM40.1072 14.3506C40.1072 14.2161 40.2035 14.1263 40.3474 14.1263H46.4318C49.8947 14.1263 51.5299 15.7426 51.5299 18.1889C51.5299 19.9174 50.6644 20.9051 49.63 21.4213V21.4663C50.6401 21.8251 51.8184 23.0374 51.8184 24.9004C51.8184 27.9306 49.7742 29.3898 46.1913 29.3898H40.3474C40.2035 29.3898 40.1072 29.3 40.1072 29.1651V14.3506Z" fill="#111111"/>
    <path fill-rule="evenodd" clip-rule="evenodd" d="M53.8134 29.3897C53.6688 29.3897 53.5724 29.2999 53.5724 29.1651V18.7952C53.5724 18.6603 53.6688 18.5706 53.8134 18.5706H56.0256C56.1698 18.5706 56.2661 18.6603 56.2661 18.7952V19.7153H56.2903C56.8431 18.885 57.8291 18.3237 59.2962 18.3237C60.2097 18.3237 61.1236 18.6603 61.7248 19.2216C61.8452 19.3336 61.8694 19.4237 61.7728 19.5357L60.4982 21.0399C60.4023 21.1518 60.2818 21.1744 60.1618 21.0846C59.6326 20.7702 59.0795 20.5684 58.4544 20.5684C56.9394 20.5684 56.2661 21.5783 56.2661 23.3067V29.1651C56.2661 29.2999 56.1698 29.3897 56.0256 29.3897H53.8134Z" fill="#111111"/>
    <path fill-rule="evenodd" clip-rule="evenodd" d="M69.167 25.9779C69.3596 25.4165 69.4076 24.9003 69.4076 23.9799C69.4076 23.0599 69.3596 22.5659 69.167 21.9825C68.8301 21.0846 68.0851 20.5684 67.0028 20.5684C65.9205 20.5684 65.1509 21.0846 64.8144 21.9825C64.6222 22.5659 64.5739 23.0599 64.5739 23.9799C64.5739 24.9003 64.6222 25.4165 64.8144 25.9779C65.1509 26.8757 65.9205 27.3919 67.0028 27.3919C68.0851 27.3919 68.8301 26.8757 69.167 25.9779ZM62.2174 26.651C61.9527 25.888 61.8326 25.1697 61.8326 23.9799C61.8326 22.7906 61.9527 22.0722 62.2174 21.3089C62.8665 19.4237 64.6459 18.3237 67.0028 18.3237C69.3354 18.3237 71.1149 19.4237 71.7644 21.3089C72.0287 22.0722 72.1491 22.7906 72.1491 23.9799C72.1491 25.1697 72.0287 25.888 71.7644 26.651C71.1149 28.5366 69.3354 29.6365 67.0028 29.6365C64.6459 29.6365 62.8665 28.5366 62.2174 26.651Z" fill="#111111"/>
    <path fill-rule="evenodd" clip-rule="evenodd" d="M83.814 29.3898C83.6694 29.3898 83.5735 29.2999 83.5252 29.165L81.2888 22.2518H81.2409L78.9803 29.165C78.932 29.2999 78.8361 29.3898 78.6915 29.3898H76.7198C76.5752 29.3898 76.4793 29.2999 76.4314 29.165L72.7758 18.7953C72.7275 18.6604 72.8 18.5706 72.9443 18.5706H75.2528C75.4212 18.5706 75.5175 18.6378 75.5654 18.7953L77.8017 25.9331H77.8501L80.0623 18.7953C80.1106 18.6604 80.2307 18.5706 80.3749 18.5706H82.1064C82.2507 18.5706 82.3711 18.6604 82.4191 18.7953L84.7759 25.9331H84.8239L86.9401 18.7953C86.9881 18.6378 87.0844 18.5706 87.2528 18.5706H89.5612C89.7056 18.5706 89.7776 18.6604 89.7297 18.7953L86.0742 29.165C86.0262 29.2999 85.93 29.3898 85.7857 29.3898H83.814Z" fill="#111111"/>
    <path fill-rule="evenodd" clip-rule="evenodd" d="M90.2039 27.9307C90.1079 27.8409 90.1079 27.7065 90.2039 27.6166L91.5747 26.2698C91.6709 26.1801 91.8152 26.1801 91.9115 26.2698C92.7532 26.9881 94.0999 27.5043 95.3022 27.5043C96.721 27.5043 97.4424 26.9656 97.4424 26.2247C97.4424 25.5738 97.0337 25.1698 95.5186 25.035L94.268 24.9231C91.9115 24.6984 90.7087 23.5762 90.7087 21.7354C90.7087 19.6481 92.3201 18.3239 95.2059 18.3239C97.0096 18.3239 98.5251 18.8852 99.5588 19.6481C99.6794 19.738 99.6794 19.8724 99.6065 19.9622L98.4288 21.2868C98.3325 21.3988 98.2119 21.3988 98.0923 21.3316C97.3702 20.8601 96.2161 20.4336 95.0617 20.4336C93.9073 20.4336 93.3061 20.9052 93.3061 21.5559C93.3061 22.1847 93.7151 22.5661 95.2059 22.7009L96.4563 22.8132C98.8849 23.0375 100.039 24.2048 100.039 25.978C100.039 28.1328 98.3558 29.6366 95.1818 29.6366C92.8012 29.6366 91.166 28.7613 90.2039 27.9307Z" fill="#111111"/>
    <path fill-rule="evenodd" clip-rule="evenodd" d="M108.882 21.8476C108.569 20.9723 107.704 20.4561 106.621 20.4561C105.516 20.4561 104.649 20.9723 104.337 21.8476C104.241 22.117 104.192 22.3863 104.192 22.768C104.192 22.8578 104.241 22.9029 104.337 22.9029H108.882C108.978 22.9029 109.027 22.8578 109.027 22.768C109.027 22.3863 108.978 22.117 108.882 21.8476ZM101.884 26.6285C101.643 25.9331 101.475 25.1025 101.475 23.9799C101.475 22.8578 101.62 22.005 101.86 21.3089C102.509 19.4237 104.288 18.3237 106.597 18.3237C108.978 18.3237 110.71 19.4685 111.359 21.3089C111.624 22.0722 111.744 22.8131 111.744 24.5638C111.744 24.6982 111.647 24.7881 111.479 24.7881H104.337C104.241 24.7881 104.192 24.8331 104.192 24.923C104.192 25.2369 104.265 25.5064 104.361 25.7531C104.745 26.8084 105.66 27.3919 106.958 27.3919C108.256 27.3919 109.098 26.9429 109.675 26.3595C109.796 26.2472 109.916 26.2246 110.036 26.3144L111.455 27.4817C111.576 27.5715 111.576 27.6838 111.479 27.7961C110.493 28.8732 108.858 29.6365 106.718 29.6365C104.265 29.6365 102.533 28.5144 101.884 26.6285Z" fill="#111111"/>
    <path fill-rule="evenodd" clip-rule="evenodd" d="M113.738 29.3897C113.594 29.3897 113.498 29.2999 113.498 29.1651V18.7952C113.498 18.6603 113.594 18.5706 113.738 18.5706H115.951C116.095 18.5706 116.191 18.6603 116.191 18.7952V19.7153H116.215C116.768 18.885 117.754 18.3237 119.221 18.3237C120.135 18.3237 121.049 18.6603 121.65 19.2216C121.77 19.3336 121.794 19.4237 121.698 19.5357L120.423 21.0399C120.328 21.1518 120.207 21.1744 120.087 21.0846C119.558 20.7702 119.004 20.5684 118.38 20.5684C116.865 20.5684 116.191 21.5783 116.191 23.3067V29.1651C116.191 29.2999 116.095 29.3897 115.951 29.3897H113.738Z" fill="#111111"/>
    <path fill-rule="evenodd" clip-rule="evenodd" d="M122.113 27.6166C122.016 27.5267 121.969 27.3919 122.065 27.2796L123.556 25.6634C123.652 25.5514 123.796 25.5514 123.892 25.6413C124.95 26.4268 126.513 27.2571 128.341 27.2571C130.289 27.2571 131.419 26.337 131.419 25.0578C131.419 23.9578 130.698 23.2395 128.437 22.9476L127.571 22.8353C124.421 22.4314 122.642 21.0171 122.642 18.4808C122.642 15.72 124.805 13.8795 128.172 13.8795C130.217 13.8795 132.165 14.4855 133.463 15.4055C133.583 15.4957 133.608 15.5855 133.511 15.72L132.357 17.3808C132.261 17.4932 132.14 17.5157 132.02 17.4484C130.698 16.6404 129.471 16.2587 128.1 16.2587C126.441 16.2587 125.527 17.1118 125.527 18.3012C125.527 19.3561 126.321 20.0744 128.533 20.3664L129.4 20.4786C132.549 20.8826 134.281 22.2741 134.281 24.9004C134.281 27.6166 132.189 29.6366 128.125 29.6366C125.72 29.6366 123.387 28.7387 122.113 27.6166Z" fill="#111111"/>
    <path fill-rule="evenodd" clip-rule="evenodd" d="M139.264 29.5804C136.931 29.5804 136.041 28.5255 136.041 26.4153V20.7145C136.041 20.6246 135.994 20.5796 135.897 20.5796H135.127C134.983 20.5796 134.887 20.4898 134.887 20.3549V18.8511C134.887 18.7166 134.983 18.6268 135.127 18.6268H135.897C135.994 18.6268 136.041 18.5817 136.041 18.4919V15.529C136.041 15.3945 136.137 15.3047 136.281 15.3047H138.494C138.639 15.3047 138.735 15.3945 138.735 15.529V18.4919C138.735 18.5817 138.783 18.6268 138.879 18.6268H140.418C140.562 18.6268 140.659 18.7166 140.659 18.8511V20.3549C140.659 20.4898 140.562 20.5796 140.418 20.5796H138.879C138.783 20.5796 138.735 20.6246 138.735 20.7145V26.3259C138.735 27.089 139.072 27.3357 139.817 27.3357H140.418C140.562 27.3357 140.659 27.4256 140.659 27.5604V29.3558C140.659 29.4906 140.562 29.5804 140.418 29.5804H139.264Z" fill="#111111"/>
    <path fill-rule="evenodd" clip-rule="evenodd" d="M149.175 25.7531V24.923C149.175 24.8331 149.126 24.7881 149.03 24.7881H147.106C145.375 24.7881 144.605 25.2369 144.605 26.2472C144.605 27.145 145.302 27.594 146.601 27.594C148.261 27.594 149.175 26.988 149.175 25.7531ZM149.463 29.3897C149.319 29.3897 149.223 29.2999 149.223 29.1651V28.3795H149.198C148.645 29.1203 147.562 29.6365 145.928 29.6365C143.811 29.6365 142.032 28.6041 142.032 26.337C142.032 23.9799 143.811 22.9029 146.674 22.9029H149.03C149.126 22.9029 149.175 22.8578 149.175 22.768V22.2518C149.175 21.017 148.549 20.4561 146.601 20.4561C145.302 20.4561 144.509 20.7927 143.955 21.1969C143.836 21.2867 143.691 21.2642 143.619 21.1518L142.729 19.6706C142.657 19.5582 142.681 19.4459 142.778 19.3786C143.715 18.7502 144.99 18.3237 146.889 18.3237C150.425 18.3237 151.724 19.4459 151.724 22.0949V29.1651C151.724 29.2999 151.627 29.3897 151.483 29.3897H149.463Z" fill="#111111"/>
  </g>
  <defs>
    <filter id="filter0_d" x="180.442" y="7.55676" width="73.0578" height="31.3019" filterUnits="userSpaceOnUse" color-interpolation-filters="sRGB">
      <feFlood flood-opacity="0" result="BackgroundImageFix"/>
      <feColorMatrix in="SourceAlpha" type="matrix" values="0 0 0 0 0 0 0 0 0 0 0 0 0 0 0 0 0 0 127 0"/>
      <feOffset dx="1" dy="2"/>
      <feGaussianBlur stdDeviation="1"/>
      <feColorMatrix type="matrix" values="0 0 0 0 0 0 0 0 0 0 0 0 0 0 0 0 0 0 0.12 0"/>
      <feBlend mode="normal" in2="BackgroundImageFix" result="effect1_dropShadow"/>
      <feBlend mode="normal" in="SourceGraphic" in2="effect1_dropShadow" result="shape"/>
    </filter>
    <clipPath id="clip0">
      <rect width="175.054" height="31.0492" fill="white" transform="translate(0.500061 5.95081)"/>
    </clipPath>
  </defs>
</svg>
